<svg width="6" height="22" viewBox="0 0 6 22" fill="none" xmlns="http://www.w3.org/2000/svg">
<path d="M3 21.1596C4.65685 21.1596 6 19.8165 6 18.1596C6 16.5028 4.65685 15.1596 3 15.1596C1.34315 15.1596 0 16.5028 0 18.1596C0 19.8165 1.34315 21.1596 3 21.1596Z" fill="white"/>
<path d="M3 13.6596C4.65685 13.6596 6 12.3165 6 10.6596C6 9.00275 4.65685 7.65961 3 7.65961C1.34315 7.65961 0 9.00275 0 10.6596C0 12.3165 1.34315 13.6596 3 13.6596Z" fill="white"/>
<path d="M3 6.15961C4.65685 6.15961 6 4.81646 6 3.15961C6 1.50275 4.65685 0.159607 3 0.159607C1.34315 0.159607 0 1.50275 0 3.15961C0 4.81646 1.34315 6.15961 3 6.15961Z" fill="white"/>
</svg>
